<svg width="16" height="16" viewBox="0 0 16 16" fill="none" xmlns="http://www.w3.org/2000/svg">
<path d="M12.9414 0.480469C12.2871 0.480469 11.6332 0.733951 11.125 1.24219L1.37891 10.9883L1.24219 11.125L1.20312 11.3203L0.519531 14.7578L0.324219 15.6758L1.24219 15.4805L4.67969 14.7969L4.875 14.7578L5.01172 14.6211L14.7578 4.875C15.7743 3.85853 15.7743 2.25866 14.7578 1.24219C14.2496 0.733951 13.5958 0.480469 12.9414 0.480469ZM12.9414 1.67188C13.2558 1.67188 13.5746 1.81683 13.8789 2.12109C14.4874 2.72962 14.4874 3.38757 13.8789 3.99609L13.4297 4.42578L11.5742 2.57031L12.0039 2.12109C12.3082 1.81683 12.627 1.67188 12.9414 1.67188ZM10.6953 3.44922L12.5508 5.30469L4.99219 12.8633C4.58321 12.0629 3.93709 11.4168 3.13672 11.0078L10.6953 3.44922ZM2.33594 12.0234C3.08537 12.3271 3.67288 12.9146 3.97656 13.6641L1.92578 14.0742L2.33594 12.0234Z" fill="#4B4B4B"/>
</svg>
