<svg width="23" height="24" viewBox="0 0 23 24" fill="none" xmlns="http://www.w3.org/2000/svg">
<path d="M17.5535 10.8221L20.6212 7.73873C22.4596 5.94972 22.4596 4.11295 20.6212 2.32394C18.7828 0.534937 16.4848 0.582468 14.7959 2.32433L8.82113 8.13865C7.75259 9.52748 7.75256 11.3165 8.67184 12.211C9.53784 13.0537 10.0506 13.5527 10.5102 14" stroke="#4B4B4B" stroke-width="1.5"/>
<path d="M5.44652 13.1779L2.37879 16.2613C0.540403 18.0503 0.540403 19.887 2.37879 21.6761C4.21718 23.4651 6.51516 23.4175 8.20411 21.6757L14.1789 15.8614C15.2474 14.4725 15.2474 12.6835 14.3282 11.789C13.4622 10.9463 12.9494 10.4473 12.4898 10" stroke="#4B4B4B" stroke-width="1.5"/>
</svg>
