<svg width="26" height="26" viewBox="0 0 26 26" fill="none" xmlns="http://www.w3.org/2000/svg">
<path d="M7.89062 21C7.78646 20.7917 7.70182 20.4206 7.63672 19.8867C6.79688 20.7591 5.79427 21.1953 4.62891 21.1953C3.58724 21.1953 2.73112 20.9023 2.06055 20.3164C1.39648 19.724 1.06445 18.9753 1.06445 18.0703C1.06445 16.9701 1.48112 16.1172 2.31445 15.5117C3.1543 14.8997 4.33268 14.5938 5.84961 14.5938H7.60742V13.7637C7.60742 13.1322 7.41862 12.6309 7.04102 12.2598C6.66341 11.8822 6.10677 11.6934 5.37109 11.6934C4.72656 11.6934 4.1862 11.8561 3.75 12.1816C3.3138 12.5072 3.0957 12.901 3.0957 13.3633H1.2793C1.2793 12.8359 1.46484 12.3281 1.83594 11.8398C2.21354 11.3451 2.72135 10.9544 3.35938 10.668C4.00391 10.3815 4.71029 10.2383 5.47852 10.2383C6.69596 10.2383 7.64974 10.5443 8.33984 11.1562C9.02995 11.7617 9.38802 12.5983 9.41406 13.666V18.5293C9.41406 19.4993 9.53776 20.2708 9.78516 20.8438V21H7.89062ZM4.89258 19.623C5.45898 19.623 5.99609 19.4766 6.50391 19.1836C7.01172 18.8906 7.37956 18.5098 7.60742 18.041V15.873H6.19141C3.97786 15.873 2.87109 16.5208 2.87109 17.8164C2.87109 18.3828 3.0599 18.8255 3.4375 19.1445C3.8151 19.4635 4.30013 19.623 4.89258 19.623ZM21.3311 16.918H14.7783L13.3066 21H11.1797L17.1523 5.35938H18.957L24.9404 21H22.8242L21.3311 16.918ZM15.4014 15.2207H20.7188L18.0547 7.90527L15.4014 15.2207Z" fill="#418BCA"/>
<path d="M5.5 8.5L8.53109 5.5H2.46891L5.5 8.5Z" fill="#418BCA"/>
</svg>
