<svg width="25" height="17" viewBox="0 0 25 17" fill="none" xmlns="http://www.w3.org/2000/svg">
<path d="M10.4521 11.918H3.89941L2.42773 16H0.300781L6.27344 0.359375H8.07812L14.0615 16H11.9453L10.4521 11.918ZM4.52246 10.2207H9.83984L7.17578 2.90527L4.52246 10.2207ZM22.2422 16C22.138 15.7917 22.0534 15.4206 21.9883 14.8867C21.1484 15.7591 20.1458 16.1953 18.9805 16.1953C17.9388 16.1953 17.0827 15.9023 16.4121 15.3164C15.748 14.724 15.416 13.9753 15.416 13.0703C15.416 11.9701 15.8327 11.1172 16.666 10.5117C17.5059 9.89974 18.6842 9.59375 20.2012 9.59375H21.959V8.76367C21.959 8.13216 21.7702 7.63086 21.3926 7.25977C21.015 6.88216 20.4583 6.69336 19.7227 6.69336C19.0781 6.69336 18.5378 6.85612 18.1016 7.18164C17.6654 7.50716 17.4473 7.90104 17.4473 8.36328H15.6309C15.6309 7.83594 15.8164 7.32812 16.1875 6.83984C16.5651 6.34505 17.0729 5.95443 17.7109 5.66797C18.3555 5.38151 19.0618 5.23828 19.8301 5.23828C21.0475 5.23828 22.0013 5.54427 22.6914 6.15625C23.3815 6.76172 23.7396 7.59831 23.7656 8.66602V13.5293C23.7656 14.4993 23.8893 15.2708 24.1367 15.8438V16H22.2422ZM19.2441 14.623C19.8105 14.623 20.3477 14.4766 20.8555 14.1836C21.3633 13.8906 21.7311 13.5098 21.959 13.041V10.873H20.543C18.3294 10.873 17.2227 11.5208 17.2227 12.8164C17.2227 13.3828 17.4115 13.8255 17.7891 14.1445C18.1667 14.4635 18.6517 14.623 19.2441 14.623Z" fill="#418BCA"/>
</svg>
