<svg width="35" height="18" viewBox="0 0 35 18" fill="none" xmlns="http://www.w3.org/2000/svg">
<path d="M10.4521 11.918H3.89941L2.42773 16H0.300781L6.27344 0.359375H8.07812L14.0615 16H11.9453L10.4521 11.918ZM4.52246 10.2207H9.83984L7.17578 2.90527L4.52246 10.2207ZM24.2344 17.6221H14.3945V16H24.2344V17.6221ZM32.168 16C32.0638 15.7917 31.9792 15.4206 31.9141 14.8867C31.0742 15.7591 30.0716 16.1953 28.9062 16.1953C27.8646 16.1953 27.0085 15.9023 26.3379 15.3164C25.6738 14.724 25.3418 13.9753 25.3418 13.0703C25.3418 11.9701 25.7585 11.1172 26.5918 10.5117C27.4316 9.89974 28.61 9.59375 30.127 9.59375H31.8848V8.76367C31.8848 8.13216 31.696 7.63086 31.3184 7.25977C30.9408 6.88216 30.3841 6.69336 29.6484 6.69336C29.0039 6.69336 28.4635 6.85612 28.0273 7.18164C27.5911 7.50716 27.373 7.90104 27.373 8.36328H25.5566C25.5566 7.83594 25.7422 7.32812 26.1133 6.83984C26.4909 6.34505 26.9987 5.95443 27.6367 5.66797C28.2812 5.38151 28.9876 5.23828 29.7559 5.23828C30.9733 5.23828 31.9271 5.54427 32.6172 6.15625C33.3073 6.76172 33.6654 7.59831 33.6914 8.66602V13.5293C33.6914 14.4993 33.8151 15.2708 34.0625 15.8438V16H32.168ZM29.1699 14.623C29.7363 14.623 30.2734 14.4766 30.7812 14.1836C31.2891 13.8906 31.6569 13.5098 31.8848 13.041V10.873H30.4688C28.2552 10.873 27.1484 11.5208 27.1484 12.8164C27.1484 13.3828 27.3372 13.8255 27.7148 14.1445C28.0924 14.4635 28.5775 14.623 29.1699 14.623Z" fill="#418BCA"/>
</svg>
