<svg width="16" height="16" fill="none" xmlns="http://www.w3.org/2000/svg"><path d="M12.941.48a2.56 2.56 0 00-1.816.762l-9.746 9.746-.137.137-.039.195-.683 3.438-.196.918.918-.196 3.438-.683.195-.04.137-.136 9.746-9.746a2.545 2.545 0 000-3.633A2.56 2.56 0 0012.94.48zm0 1.192c.315 0 .634.145.938.45.608.608.608 1.266 0 1.874l-.45.43-1.855-1.856.43-.449c.304-.304.623-.45.937-.45zm-2.246 1.777l1.856 1.856-7.559 7.558a4.25 4.25 0 00-1.855-1.855l7.558-7.559zm-8.36 8.574a2.97 2.97 0 011.642 1.641l-2.051.41.41-2.05z" fill="#4B4B4B"/></svg>