<svg width="35" height="18" fill="none" xmlns="http://www.w3.org/2000/svg"><path d="M10.452 11.918H3.9L2.428 16H.3L6.273.36h1.805L14.062 16h-2.117l-1.493-4.082zm-5.93-1.697H9.84L7.176 2.905l-2.654 7.316zm19.712 7.401h-9.84V16h9.84v1.622zM32.168 16c-.104-.208-.189-.58-.254-1.113-.84.872-1.842 1.308-3.008 1.308-1.041 0-1.897-.293-2.568-.879-.664-.592-.996-1.34-.996-2.246 0-1.1.417-1.953 1.25-2.558.84-.612 2.018-.918 3.535-.918h1.758v-.83c0-.632-.189-1.133-.567-1.504-.377-.378-.934-.567-1.67-.567-.644 0-1.184.163-1.62.489-.437.325-.655.719-.655 1.181h-1.816c0-.527.185-1.035.556-1.523.378-.495.886-.886 1.524-1.172a5.159 5.159 0 012.119-.43c1.217 0 2.171.306 2.861.918.69.606 1.048 1.442 1.074 2.51v4.863c0 .97.124 1.742.371 2.315V16h-1.894zm-2.998-1.377c.566 0 1.103-.146 1.611-.44.508-.292.876-.673 1.104-1.142v-2.168h-1.416c-2.214 0-3.32.648-3.32 1.943 0 .567.188 1.01.566 1.329.377.319.863.478 1.455.478z" fill="#418BCA"/></svg>