<svg width="26" height="26" fill="none" xmlns="http://www.w3.org/2000/svg"><path d="M7.89 21c-.104-.208-.188-.58-.253-1.113-.84.872-1.843 1.308-3.008 1.308-1.042 0-1.898-.293-2.568-.879-.665-.592-.997-1.34-.997-2.246 0-1.1.417-1.953 1.25-2.558.84-.612 2.019-.918 3.536-.918h1.757v-.83c0-.632-.188-1.133-.566-1.504-.378-.378-.934-.567-1.67-.567-.644 0-1.185.163-1.621.489-.436.325-.654.719-.654 1.181H1.279c0-.527.186-1.035.557-1.523.378-.495.885-.886 1.523-1.172a5.158 5.158 0 012.12-.43c1.217 0 2.17.306 2.86.918.69.606 1.049 1.442 1.075 2.51v4.863c0 .97.124 1.742.371 2.315V21H7.891zm-2.997-1.377a3.16 3.16 0 001.61-.44c.509-.292.877-.673 1.104-1.142v-2.168H6.191c-2.213 0-3.32.648-3.32 1.943 0 .567.189 1.01.567 1.329.377.319.862.478 1.455.478zm16.438-2.705h-6.553L13.307 21H11.18l5.972-15.64h1.805L24.94 21h-2.116l-1.493-4.082zm-5.93-1.697h5.318l-2.664-7.316-2.654 7.316zM5.5 8.5l3.031-3H2.47l3.031 3z" fill="#418BCA"/></svg>