<svg width="25" height="17" fill="none" xmlns="http://www.w3.org/2000/svg"><path d="M10.452 11.918H3.9L2.428 16H.3L6.273.36h1.805L14.062 16h-2.117l-1.493-4.082zm-5.93-1.697H9.84L7.176 2.905l-2.654 7.316zM22.242 16c-.104-.208-.189-.58-.254-1.113-.84.872-1.842 1.308-3.008 1.308-1.041 0-1.897-.293-2.568-.879-.664-.592-.996-1.34-.996-2.246 0-1.1.417-1.953 1.25-2.558.84-.612 2.018-.918 3.535-.918h1.758v-.83c0-.632-.189-1.133-.566-1.504-.378-.378-.935-.567-1.67-.567-.645 0-1.185.163-1.621.489-.437.325-.655.719-.655 1.181h-1.816c0-.527.185-1.035.556-1.523.378-.495.886-.886 1.524-1.172a5.16 5.16 0 012.12-.43c1.216 0 2.17.306 2.86.918.69.606 1.049 1.442 1.075 2.51v4.863c0 .97.123 1.742.37 2.315V16h-1.894zm-2.998-1.377a3.16 3.16 0 001.611-.44c.508-.292.876-.673 1.104-1.142v-2.168h-1.416c-2.214 0-3.32.648-3.32 1.943 0 .567.189 1.01.566 1.329.378.319.863.478 1.455.478z" fill="#418BCA"/></svg>